<svg id="visual" viewBox="0 0 900 300" width="900" height="300" xmlns="http://www.w3.org/2000/svg" xmlns:xlink="http://www.w3.org/1999/xlink" version="1.1"><path d="M0 130L30 124.3C60 118.7 120 107.3 180 103.3C240 99.3 300 102.7 360 112.3C420 122 480 138 540 144.3C600 150.7 660 147.3 720 141.8C780 136.3 840 128.7 870 124.8L900 121L900 0L870 0C840 0 780 0 720 0C660 0 600 0 540 0C480 0 420 0 360 0C300 0 240 0 180 0C120 0 60 0 30 0L0 0Z" fill="#0751a0"></path><path d="M0 72L30 74C60 76 120 80 180 84C240 88 300 92 360 94.5C420 97 480 98 540 94.7C600 91.3 660 83.7 720 85C780 86.3 840 96.7 870 101.8L900 107L900 0L870 0C840 0 780 0 720 0C660 0 600 0 540 0C480 0 420 0 360 0C300 0 240 0 180 0C120 0 60 0 30 0L0 0Z" fill="#004481"></path><path d="M0 88L30 88C60 88 120 88 180 82.3C240 76.7 300 65.3 360 62C420 58.7 480 63.3 540 64.8C600 66.3 660 64.7 720 68C780 71.3 840 79.7 870 83.8L900 88L900 0L870 0C840 0 780 0 720 0C660 0 600 0 540 0C480 0 420 0 360 0C300 0 240 0 180 0C120 0 60 0 30 0L0 0Z" fill="#073763"></path><path d="M0 31L30 34C60 37 120 43 180 42.7C240 42.3 300 35.7 360 32.2C420 28.7 480 28.3 540 26.5C600 24.7 660 21.3 720 23C780 24.7 840 31.3 870 34.7L900 38L900 0L870 0C840 0 780 0 720 0C660 0 600 0 540 0C480 0 420 0 360 0C300 0 240 0 180 0C120 0 60 0 30 0L0 0Z" fill="#0e2a47"></path></svg>