<svg id="visual" viewBox="0 0 900 300" width="900" height="300" xmlns="http://www.w3.org/2000/svg" xmlns:xlink="http://www.w3.org/1999/xlink" version="1.1"><rect x="0" y="0" width="900" height="300" fill="#001220"></rect><path d="M0 174L30 166.5C60 159 120 144 180 138.7C240 133.3 300 137.7 360 150.5C420 163.3 480 184.7 540 193C600 201.3 660 196.7 720 189.3C780 182 840 172 870 167L900 162L900 0L870 0C840 0 780 0 720 0C660 0 600 0 540 0C480 0 420 0 360 0C300 0 240 0 180 0C120 0 60 0 30 0L0 0Z" fill="#0751a0"></path><path d="M0 97L30 99.7C60 102.3 120 107.7 180 112.8C240 118 300 123 360 126.3C420 129.7 480 131.3 540 127C600 122.7 660 112.3 720 114C780 115.7 840 129.3 870 136.2L900 143L900 0L870 0C840 0 780 0 720 0C660 0 600 0 540 0C480 0 420 0 360 0C300 0 240 0 180 0C120 0 60 0 30 0L0 0Z" fill="#004481"></path><path d="M0 118L30 118C60 118 120 118 180 110.3C240 102.7 300 87.3 360 83C420 78.7 480 85.3 540 87.3C600 89.3 660 86.7 720 91C780 95.3 840 106.7 870 112.3L900 118L900 0L870 0C840 0 780 0 720 0C660 0 600 0 540 0C480 0 420 0 360 0C300 0 240 0 180 0C120 0 60 0 30 0L0 0Z" fill="#073763"></path><path d="M0 42L30 46C60 50 120 58 180 57.5C240 57 300 48 360 43.3C420 38.7 480 38.3 540 35.8C600 33.3 660 28.7 720 30.8C780 33 840 42 870 46.5L900 51L900 0L870 0C840 0 780 0 720 0C660 0 600 0 540 0C480 0 420 0 360 0C300 0 240 0 180 0C120 0 60 0 30 0L0 0Z" fill="#0e2a47"></path></svg>