<svg id="visual" viewBox="0 0 900 200" width="900" height="200" xmlns="http://www.w3.org/2000/svg" xmlns:xlink="http://www.w3.org/1999/xlink" version="1.1"><path d="M0 130L30 133.5C60 137 120 144 180 147.7C240 151.3 300 151.7 360 148.2C420 144.7 480 137.3 540 134C600 130.7 660 131.3 720 134.7C780 138 840 144 870 147L900 150L900 201L870 201C840 201 780 201 720 201C660 201 600 201 540 201C480 201 420 201 360 201C300 201 240 201 180 201C120 201 60 201 30 201L0 201Z" fill="#0751a0"></path><path d="M0 169L30 167.3C60 165.7 120 162.3 180 162.5C240 162.7 300 166.3 360 168.7C420 171 480 172 540 169.2C600 166.3 660 159.7 720 155.7C780 151.7 840 150.3 870 149.7L900 149L900 201L870 201C840 201 780 201 720 201C660 201 600 201 540 201C480 201 420 201 360 201C300 201 240 201 180 201C120 201 60 201 30 201L0 201Z" fill="#033e72"></path><path d="M0 169L30 170.8C60 172.7 120 176.3 180 178.5C240 180.7 300 181.3 360 181.5C420 181.7 480 181.3 540 182.5C600 183.7 660 186.3 720 185.2C780 184 840 179 870 176.5L900 174L900 201L870 201C840 201 780 201 720 201C660 201 600 201 540 201C480 201 420 201 360 201C300 201 240 201 180 201C120 201 60 201 30 201L0 201Z" fill="#0e2a47"></path></svg>